STARTFONT 2.1
FONT -mogeko-satori-Regular-R-Normal--11-80-100-100-P-48-ISO10646-1
SIZE "10 75 75"
FONTBOUNDINGBOX 7 13 -1 -2
COMMENT "generated by fontforge :3"
STARTPROPERTIES 17
COPYRIGHT "(c) 2024, moge-ko <mogeko@waifu.club>"
SIZE "10 75 75"
FONTBOUNDINGBOX "6 11 0 -2"
POINT_SIZE 80
PIXEL_SIZE 11
RESOLUTION_X 100
RESOLUTION_Y 100
AVERAGE_WIDTH 100
SPACING "P"
CHARSET_ENCODING "1"
CHARSET_REGISTRY "ISO10646"
FOUNDRY "mogeko"
FAMILY_NAME "satori"
WEIGHTNAME "Regular"
DEFAULT_CHAR 0
FONT_DESCENT 2
FONT_ASCENT 9
ENDPROPERTIES
CHARS 280
STARTCHAR SPACE
ENCODING 32
SWIDTH 480 0
DWIDTH 5 0
BBX 1 1 0 0
BITMAP
00
ENDCHAR
STARTCHAR EXCLAMATION
ENCODING 33
SWIDTH 192 0
DWIDTH 2 0
BBX 1 7 0 0
BITMAP
80
80
80
80
80
00
80
ENDCHAR
STARTCHAR QUOTATION
ENCODING 34
SWIDTH 384 0
DWIDTH 4 0
BBX 3 3 0 5
BITMAP
A0
A0
A0
ENDCHAR
STARTCHAR NUMBER
ENCODING 35
SWIDTH 576 0
DWIDTH 6 0
BBX 5 7 0 0
BITMAP
50
50
F8
50
F8
50
50
ENDCHAR
STARTCHAR DOLLAR
ENCODING 36
SWIDTH 480 0
DWIDTH 5 0
BBX 4 9 0 -1
BITMAP
20
F0
90
80
F0
10
90
F0
40
ENDCHAR
STARTCHAR PERCENT
ENCODING 37
SWIDTH 576 0
DWIDTH 6 0
BBX 5 7 0 0
BITMAP
C0
C8
10
20
40
98
18
ENDCHAR
STARTCHAR AMPERSAND
ENCODING 38
SWIDTH 576 0
DWIDTH 6 0
BBX 5 7 0 0
BITMAP
40
A0
A0
40
A8
90
68
ENDCHAR
STARTCHAR APOSTROPHE
ENCODING 39
SWIDTH 192 0
DWIDTH 2 0
BBX 1 3 0 5
BITMAP
80
80
80
ENDCHAR
STARTCHAR LEFT
ENCODING 40
SWIDTH 384 0
DWIDTH 4 0
BBX 3 9 0 -1
BITMAP
20
40
40
80
80
80
40
40
20
ENDCHAR
STARTCHAR RIGHT
ENCODING 41
SWIDTH 384 0
DWIDTH 4 0
BBX 3 9 0 -1
BITMAP
80
40
40
20
20
20
40
40
80
ENDCHAR
STARTCHAR ASTERISK
ENCODING 42
SWIDTH 480 0
DWIDTH 5 0
BBX 4 5 0 1
BITMAP
90
60
F0
60
90
ENDCHAR
STARTCHAR PLUS
ENCODING 43
SWIDTH 576 0
DWIDTH 6 0
BBX 5 5 0 1
BITMAP
20
20
F8
20
20
ENDCHAR
STARTCHAR COMMA
ENCODING 44
SWIDTH 288 0
DWIDTH 3 0
BBX 2 3 0 -1
BITMAP
40
40
80
ENDCHAR
STARTCHAR HYPHEN-MINUS
ENCODING 45
SWIDTH 480 0
DWIDTH 5 0
BBX 4 1 0 3
BITMAP
F0
ENDCHAR
STARTCHAR FULL
ENCODING 46
SWIDTH 363 0
DWIDTH 4 0
BBX 1 2 1 0
BITMAP
80
80
ENDCHAR
STARTCHAR SOLIDUS
ENCODING 47
SWIDTH 384 0
DWIDTH 4 0
BBX 3 9 0 -1
BITMAP
20
20
20
40
40
40
80
80
80
ENDCHAR
STARTCHAR DIGIT
ENCODING 48
SWIDTH 480 0
DWIDTH 5 0
BBX 4 7 0 0
BITMAP
60
90
B0
D0
90
90
60
ENDCHAR
STARTCHAR DIGIT
ENCODING 49
SWIDTH 363 0
DWIDTH 4 0
BBX 3 7 0 0
BITMAP
40
C0
40
40
40
40
E0
ENDCHAR
STARTCHAR DIGIT
ENCODING 50
SWIDTH 480 0
DWIDTH 5 0
BBX 4 7 0 0
BITMAP
60
90
10
20
40
80
F0
ENDCHAR
STARTCHAR DIGIT
ENCODING 51
SWIDTH 480 0
DWIDTH 5 0
BBX 4 7 0 0
BITMAP
60
90
10
60
10
90
60
ENDCHAR
STARTCHAR DIGIT
ENCODING 52
SWIDTH 480 0
DWIDTH 5 0
BBX 4 7 0 0
BITMAP
20
60
60
A0
F0
20
20
ENDCHAR
STARTCHAR DIGIT
ENCODING 53
SWIDTH 480 0
DWIDTH 5 0
BBX 4 7 0 0
BITMAP
F0
80
E0
10
10
90
60
ENDCHAR
STARTCHAR DIGIT
ENCODING 54
SWIDTH 480 0
DWIDTH 5 0
BBX 4 7 0 0
BITMAP
60
90
80
E0
90
90
60
ENDCHAR
STARTCHAR DIGIT
ENCODING 55
SWIDTH 480 0
DWIDTH 5 0
BBX 4 7 0 0
BITMAP
F0
10
10
20
40
40
40
ENDCHAR
STARTCHAR DIGIT
ENCODING 56
SWIDTH 480 0
DWIDTH 5 0
BBX 4 7 0 0
BITMAP
60
90
90
60
90
90
60
ENDCHAR
STARTCHAR DIGIT
ENCODING 57
SWIDTH 480 0
DWIDTH 5 0
BBX 4 7 0 0
BITMAP
60
90
90
70
10
90
60
ENDCHAR
STARTCHAR COLON
ENCODING 58
SWIDTH 363 0
DWIDTH 4 0
BBX 1 5 1 0
BITMAP
80
80
00
80
80
ENDCHAR
STARTCHAR SEMICOLON
ENCODING 59
SWIDTH 363 0
DWIDTH 4 0
BBX 2 6 0 -1
BITMAP
40
40
00
40
40
80
ENDCHAR
STARTCHAR LESS-THAN
ENCODING 60
SWIDTH 363 0
DWIDTH 4 0
BBX 3 5 0 1
BITMAP
20
40
80
40
20
ENDCHAR
STARTCHAR EQUALS
ENCODING 61
SWIDTH 480 0
DWIDTH 5 0
BBX 4 3 0 2
BITMAP
F0
00
F0
ENDCHAR
STARTCHAR GREATER-THAN
ENCODING 62
SWIDTH 363 0
DWIDTH 4 0
BBX 3 5 0 1
BITMAP
80
40
20
40
80
ENDCHAR
STARTCHAR QUESTION
ENCODING 63
SWIDTH 480 0
DWIDTH 5 0
BBX 4 7 0 0
BITMAP
60
90
10
20
40
00
40
ENDCHAR
STARTCHAR COMMERCIAL
ENCODING 64
SWIDTH 545 0
DWIDTH 6 0
BBX 5 7 0 0
BITMAP
70
88
B8
A8
B8
80
70
ENDCHAR
STARTCHAR LATIN
ENCODING 65
SWIDTH 480 0
DWIDTH 5 0
BBX 4 7 0 0
BITMAP
60
90
90
F0
90
90
90
ENDCHAR
STARTCHAR LATIN
ENCODING 66
SWIDTH 480 0
DWIDTH 5 0
BBX 4 7 0 0
BITMAP
E0
90
90
E0
90
90
E0
ENDCHAR
STARTCHAR LATIN
ENCODING 67
SWIDTH 480 0
DWIDTH 5 0
BBX 4 7 0 0
BITMAP
60
90
80
80
80
90
60
ENDCHAR
STARTCHAR LATIN
ENCODING 68
SWIDTH 480 0
DWIDTH 5 0
BBX 4 7 0 0
BITMAP
C0
A0
90
90
90
A0
C0
ENDCHAR
STARTCHAR LATIN
ENCODING 69
SWIDTH 480 0
DWIDTH 5 0
BBX 4 7 0 0
BITMAP
F0
80
80
E0
80
80
F0
ENDCHAR
STARTCHAR LATIN
ENCODING 70
SWIDTH 480 0
DWIDTH 5 0
BBX 4 7 0 0
BITMAP
F0
80
80
E0
80
80
80
ENDCHAR
STARTCHAR LATIN
ENCODING 71
SWIDTH 480 0
DWIDTH 5 0
BBX 4 7 0 0
BITMAP
60
90
80
B0
90
90
60
ENDCHAR
STARTCHAR LATIN
ENCODING 72
SWIDTH 480 0
DWIDTH 5 0
BBX 4 7 0 0
BITMAP
90
90
90
F0
90
90
90
ENDCHAR
STARTCHAR LATIN
ENCODING 73
SWIDTH 363 0
DWIDTH 4 0
BBX 3 7 0 0
BITMAP
E0
40
40
40
40
40
E0
ENDCHAR
STARTCHAR LATIN
ENCODING 74
SWIDTH 454 0
DWIDTH 5 0
BBX 4 7 0 0
BITMAP
30
10
10
10
10
90
60
ENDCHAR
STARTCHAR LATIN
ENCODING 75
SWIDTH 480 0
DWIDTH 5 0
BBX 4 7 0 0
BITMAP
90
90
A0
C0
A0
90
90
ENDCHAR
STARTCHAR LATIN
ENCODING 76
SWIDTH 454 0
DWIDTH 5 0
BBX 4 7 0 0
BITMAP
80
80
80
80
80
80
F0
ENDCHAR
STARTCHAR LATIN
ENCODING 77
SWIDTH 576 0
DWIDTH 6 0
BBX 5 7 0 0
BITMAP
88
D8
A8
88
88
88
88
ENDCHAR
STARTCHAR LATIN
ENCODING 78
SWIDTH 480 0
DWIDTH 5 0
BBX 4 7 0 0
BITMAP
90
D0
D0
B0
B0
90
90
ENDCHAR
STARTCHAR LATIN
ENCODING 79
SWIDTH 480 0
DWIDTH 5 0
BBX 4 7 0 0
BITMAP
60
90
90
90
90
90
60
ENDCHAR
STARTCHAR LATIN
ENCODING 80
SWIDTH 480 0
DWIDTH 5 0
BBX 4 7 0 0
BITMAP
E0
90
90
E0
80
80
80
ENDCHAR
STARTCHAR LATIN
ENCODING 81
SWIDTH 480 0
DWIDTH 5 0
BBX 4 8 0 -1
BITMAP
60
90
90
90
90
B0
60
10
ENDCHAR
STARTCHAR LATIN
ENCODING 82
SWIDTH 480 0
DWIDTH 5 0
BBX 4 7 0 0
BITMAP
E0
90
90
E0
A0
90
90
ENDCHAR
STARTCHAR LATIN
ENCODING 83
SWIDTH 480 0
DWIDTH 5 0
BBX 4 7 0 0
BITMAP
60
90
80
60
10
90
60
ENDCHAR
STARTCHAR LATIN
ENCODING 84
SWIDTH 545 0
DWIDTH 6 0
BBX 5 7 0 0
BITMAP
F8
20
20
20
20
20
20
ENDCHAR
STARTCHAR LATIN
ENCODING 85
SWIDTH 480 0
DWIDTH 5 0
BBX 4 7 0 0
BITMAP
90
90
90
90
90
90
60
ENDCHAR
STARTCHAR LATIN
ENCODING 86
SWIDTH 545 0
DWIDTH 6 0
BBX 5 7 0 0
BITMAP
88
88
50
50
50
20
20
ENDCHAR
STARTCHAR LATIN
ENCODING 87
SWIDTH 576 0
DWIDTH 6 0
BBX 5 7 0 0
BITMAP
88
88
A8
A8
A8
50
50
ENDCHAR
STARTCHAR LATIN
ENCODING 88
SWIDTH 454 0
DWIDTH 5 0
BBX 4 7 0 0
BITMAP
90
90
60
60
60
90
90
ENDCHAR
STARTCHAR LATIN
ENCODING 89
SWIDTH 545 0
DWIDTH 6 0
BBX 5 7 0 0
BITMAP
88
88
50
20
20
20
20
ENDCHAR
STARTCHAR LATIN
ENCODING 90
SWIDTH 480 0
DWIDTH 5 0
BBX 4 7 0 0
BITMAP
F0
10
20
40
80
80
F0
ENDCHAR
STARTCHAR LEFT
ENCODING 91
SWIDTH 384 0
DWIDTH 4 0
BBX 3 9 0 -1
BITMAP
E0
80
80
80
80
80
80
80
E0
ENDCHAR
STARTCHAR REVERSE
ENCODING 92
SWIDTH 384 0
DWIDTH 4 0
BBX 3 9 0 -1
BITMAP
80
80
80
40
40
40
20
20
20
ENDCHAR
STARTCHAR RIGHT
ENCODING 93
SWIDTH 384 0
DWIDTH 4 0
BBX 3 9 0 -1
BITMAP
E0
20
20
20
20
20
20
20
E0
ENDCHAR
STARTCHAR CIRCUMFLEX
ENCODING 94
SWIDTH 454 0
DWIDTH 5 0
BBX 4 3 0 5
BITMAP
60
60
90
ENDCHAR
STARTCHAR LOW
ENCODING 95
SWIDTH 480 0
DWIDTH 5 0
BBX 4 1 0 -1
BITMAP
F0
ENDCHAR
STARTCHAR GRAVE
ENCODING 96
SWIDTH 288 0
DWIDTH 3 0
BBX 2 3 0 5
BITMAP
80
80
40
ENDCHAR
STARTCHAR LATIN
ENCODING 97
SWIDTH 480 0
DWIDTH 5 0
BBX 4 5 0 0
BITMAP
60
10
70
90
70
ENDCHAR
STARTCHAR LATIN
ENCODING 98
SWIDTH 480 0
DWIDTH 5 0
BBX 4 7 0 0
BITMAP
80
80
A0
D0
90
90
E0
ENDCHAR
STARTCHAR LATIN
ENCODING 99
SWIDTH 480 0
DWIDTH 5 0
BBX 4 5 0 0
BITMAP
60
90
80
90
60
ENDCHAR
STARTCHAR LATIN
ENCODING 100
SWIDTH 480 0
DWIDTH 5 0
BBX 4 7 0 0
BITMAP
10
10
50
B0
90
90
70
ENDCHAR
STARTCHAR LATIN
ENCODING 101
SWIDTH 480 0
DWIDTH 5 0
BBX 4 5 0 0
BITMAP
60
90
F0
80
60
ENDCHAR
STARTCHAR LATIN
ENCODING 102
SWIDTH 454 0
DWIDTH 5 0
BBX 4 7 0 0
BITMAP
20
50
40
E0
40
40
40
ENDCHAR
STARTCHAR LATIN
ENCODING 103
SWIDTH 480 0
DWIDTH 5 0
BBX 4 7 0 -2
BITMAP
50
B0
90
90
70
10
60
ENDCHAR
STARTCHAR LATIN
ENCODING 104
SWIDTH 480 0
DWIDTH 5 0
BBX 4 7 0 0
BITMAP
80
80
A0
D0
90
90
90
ENDCHAR
STARTCHAR LATIN
ENCODING 105
SWIDTH 363 0
DWIDTH 4 0
BBX 3 7 0 0
BITMAP
40
00
C0
40
40
40
E0
ENDCHAR
STARTCHAR LATIN
ENCODING 106
SWIDTH 363 0
DWIDTH 4 0
BBX 3 9 0 -2
BITMAP
20
00
60
20
20
20
20
A0
40
ENDCHAR
STARTCHAR LATIN
ENCODING 107
SWIDTH 480 0
DWIDTH 5 0
BBX 4 7 0 0
BITMAP
80
80
90
A0
C0
A0
90
ENDCHAR
STARTCHAR LATIN
ENCODING 108
SWIDTH 363 0
DWIDTH 4 0
BBX 3 7 0 0
BITMAP
C0
40
40
40
40
40
60
ENDCHAR
STARTCHAR LATIN
ENCODING 109
SWIDTH 576 0
DWIDTH 6 0
BBX 5 5 0 0
BITMAP
D0
A8
A8
A8
A8
ENDCHAR
STARTCHAR LATIN
ENCODING 110
SWIDTH 480 0
DWIDTH 5 0
BBX 4 5 0 0
BITMAP
A0
D0
90
90
90
ENDCHAR
STARTCHAR LATIN
ENCODING 111
SWIDTH 480 0
DWIDTH 5 0
BBX 4 5 0 0
BITMAP
60
90
90
90
60
ENDCHAR
STARTCHAR LATIN
ENCODING 112
SWIDTH 480 0
DWIDTH 5 0
BBX 4 7 0 -2
BITMAP
A0
D0
90
90
E0
80
80
ENDCHAR
STARTCHAR LATIN
ENCODING 113
SWIDTH 480 0
DWIDTH 5 0
BBX 4 7 0 -2
BITMAP
70
90
90
B0
50
10
10
ENDCHAR
STARTCHAR LATIN
ENCODING 114
SWIDTH 480 0
DWIDTH 5 0
BBX 4 5 0 0
BITMAP
B0
C0
80
80
80
ENDCHAR
STARTCHAR LATIN
ENCODING 115
SWIDTH 480 0
DWIDTH 5 0
BBX 4 5 0 0
BITMAP
70
80
60
10
E0
ENDCHAR
STARTCHAR LATIN
ENCODING 116
SWIDTH 454 0
DWIDTH 5 0
BBX 4 7 0 0
BITMAP
40
40
E0
40
40
50
20
ENDCHAR
STARTCHAR LATIN
ENCODING 117
SWIDTH 480 0
DWIDTH 5 0
BBX 4 5 0 0
BITMAP
90
90
90
B0
50
ENDCHAR
STARTCHAR LATIN
ENCODING 118
SWIDTH 480 0
DWIDTH 5 0
BBX 4 5 0 0
BITMAP
90
90
90
60
60
ENDCHAR
STARTCHAR LATIN
ENCODING 119
SWIDTH 576 0
DWIDTH 6 0
BBX 5 5 0 0
BITMAP
88
A8
A8
A8
50
ENDCHAR
STARTCHAR LATIN
ENCODING 120
SWIDTH 454 0
DWIDTH 5 0
BBX 4 5 0 0
BITMAP
90
90
60
90
90
ENDCHAR
STARTCHAR LATIN
ENCODING 121
SWIDTH 480 0
DWIDTH 5 0
BBX 4 7 0 -2
BITMAP
90
90
90
50
30
10
60
ENDCHAR
STARTCHAR LATIN
ENCODING 122
SWIDTH 480 0
DWIDTH 5 0
BBX 4 5 0 0
BITMAP
F0
10
20
40
F0
ENDCHAR
STARTCHAR LEFT
ENCODING 123
SWIDTH 363 0
DWIDTH 4 0
BBX 3 9 0 -1
BITMAP
20
40
40
40
80
40
40
40
20
ENDCHAR
STARTCHAR VERTICAL
ENCODING 124
SWIDTH 192 0
DWIDTH 2 0
BBX 1 9 0 -1
BITMAP
80
80
80
80
80
80
80
80
80
ENDCHAR
STARTCHAR RIGHT
ENCODING 125
SWIDTH 363 0
DWIDTH 4 0
BBX 3 9 0 -1
BITMAP
80
40
40
40
20
40
40
40
80
ENDCHAR
STARTCHAR TILDE
ENCODING 126
SWIDTH 454 0
DWIDTH 5 0
BBX 4 2 0 5
BITMAP
50
A0
ENDCHAR
STARTCHAR NO-BREAK
ENCODING 160
SWIDTH 480 0
DWIDTH 5 0
BBX 4 2 0 0
BITMAP
90
F0
ENDCHAR
STARTCHAR INVERTED
ENCODING 161
SWIDTH 192 0
DWIDTH 2 0
BBX 1 6 0 0
BITMAP
80
80
00
80
80
80
ENDCHAR
STARTCHAR CENT
ENCODING 162
SWIDTH 480 0
DWIDTH 5 0
BBX 4 7 0 -1
BITMAP
20
70
A0
A0
A0
70
20
ENDCHAR
STARTCHAR POUND
ENCODING 163
SWIDTH 480 0
DWIDTH 5 0
BBX 4 6 0 0
BITMAP
20
50
40
E0
40
F0
ENDCHAR
STARTCHAR CURRENCY
ENCODING 164
SWIDTH 576 0
DWIDTH 6 0
BBX 5 5 0 0
BITMAP
88
70
50
70
88
ENDCHAR
STARTCHAR YEN
ENCODING 165
SWIDTH 576 0
DWIDTH 6 0
BBX 5 7 0 0
BITMAP
88
88
50
F8
20
F8
20
ENDCHAR
STARTCHAR BROKEN
ENCODING 166
SWIDTH 192 0
DWIDTH 2 0
BBX 1 6 0 0
BITMAP
80
80
00
00
80
80
ENDCHAR
STARTCHAR SECTION
ENCODING 167
SWIDTH 480 0
DWIDTH 5 0
BBX 4 8 0 -1
BITMAP
70
80
60
90
90
60
10
E0
ENDCHAR
STARTCHAR DIAERESIS
ENCODING 168
SWIDTH 384 0
DWIDTH 4 0
BBX 3 1 0 6
BITMAP
A0
ENDCHAR
STARTCHAR COPYRIGHT
ENCODING 169
SWIDTH 576 0
DWIDTH 6 0
BBX 5 6 0 0
BITMAP
70
C8
B8
B8
C8
70
ENDCHAR
STARTCHAR FEMININE
ENCODING 170
SWIDTH 480 0
DWIDTH 5 0
BBX 4 6 0 0
BITMAP
70
90
90
70
00
F0
ENDCHAR
STARTCHAR LEFT-POINTING
ENCODING 171
SWIDTH 576 0
DWIDTH 6 0
BBX 5 4 0 0
BITMAP
48
90
90
48
ENDCHAR
STARTCHAR NOT
ENCODING 172
SWIDTH 480 0
DWIDTH 5 0
BBX 4 3 0 0
BITMAP
F0
10
10
ENDCHAR
STARTCHAR SOFT
ENCODING 173
SWIDTH 384 0
DWIDTH 4 0
BBX 3 1 0 2
BITMAP
E0
ENDCHAR
STARTCHAR REGISTERED
ENCODING 174
SWIDTH 576 0
DWIDTH 6 0
BBX 5 6 0 0
BITMAP
70
88
A8
98
A8
70
ENDCHAR
STARTCHAR MACRON
ENCODING 175
SWIDTH 480 0
DWIDTH 5 0
BBX 4 1 0 5
BITMAP
F0
ENDCHAR
STARTCHAR DEGREE
ENCODING 176
SWIDTH 480 0
DWIDTH 5 0
BBX 4 4 0 3
BITMAP
60
90
90
60
ENDCHAR
STARTCHAR PLUS-MINUS
ENCODING 177
SWIDTH 576 0
DWIDTH 6 0
BBX 5 6 0 0
BITMAP
20
20
F8
20
20
F8
ENDCHAR
STARTCHAR SUPERSCRIPT
ENCODING 178
SWIDTH 454 0
DWIDTH 5 0
BBX 4 4 0 4
BITMAP
60
90
20
F0
ENDCHAR
STARTCHAR SUPERSCRIPT
ENCODING 179
SWIDTH 384 0
DWIDTH 4 0
BBX 3 4 0 4
BITMAP
E0
40
20
C0
ENDCHAR
STARTCHAR ACUTE
ENCODING 180
SWIDTH 288 0
DWIDTH 3 0
BBX 2 2 0 6
BITMAP
40
80
ENDCHAR
STARTCHAR MICRO
ENCODING 181
SWIDTH 576 0
DWIDTH 6 0
BBX 5 7 0 -2
BITMAP
90
90
90
B0
D0
88
80
ENDCHAR
STARTCHAR PILCROW
ENCODING 182
SWIDTH 545 0
DWIDTH 6 0
BBX 5 8 0 0
BITMAP
78
E8
E8
78
28
28
28
28
ENDCHAR
STARTCHAR MIDDLE
ENCODING 183
SWIDTH 192 0
DWIDTH 2 0
BBX 1 2 0 2
BITMAP
80
80
ENDCHAR
STARTCHAR CEDILLA
ENCODING 184
SWIDTH 288 0
DWIDTH 3 0
BBX 2 2 0 -2
BITMAP
40
80
ENDCHAR
STARTCHAR SUPERSCRIPT
ENCODING 185
SWIDTH 288 0
DWIDTH 3 0
BBX 2 4 0 4
BITMAP
40
C0
40
40
ENDCHAR
STARTCHAR MASCULINE
ENCODING 186
SWIDTH 480 0
DWIDTH 5 0
BBX 4 6 0 2
BITMAP
60
90
90
60
00
F0
ENDCHAR
STARTCHAR RIGHT-POINTING
ENCODING 187
SWIDTH 576 0
DWIDTH 6 0
BBX 5 4 0 0
BITMAP
90
48
48
90
ENDCHAR
STARTCHAR VULGAR
ENCODING 188
SWIDTH 576 0
DWIDTH 6 0
BBX 5 9 0 -1
BITMAP
40
C0
40
40
00
28
28
18
08
ENDCHAR
STARTCHAR VULGAR
ENCODING 189
SWIDTH 636 0
DWIDTH 7 0
BBX 6 9 0 -1
BITMAP
40
C0
40
40
00
18
24
08
3C
ENDCHAR
STARTCHAR VULGAR
ENCODING 190
SWIDTH 576 0
DWIDTH 6 0
BBX 5 9 0 -1
BITMAP
E0
40
20
C0
00
28
28
18
08
ENDCHAR
STARTCHAR INVERTED
ENCODING 191
SWIDTH 480 0
DWIDTH 5 0
BBX 4 7 0 0
BITMAP
20
00
20
40
80
90
60
ENDCHAR
STARTCHAR LATIN
ENCODING 192
SWIDTH 480 0
DWIDTH 5 0
BBX 4 10 0 0
BITMAP
80
40
00
60
90
90
F0
90
90
90
ENDCHAR
STARTCHAR LATIN
ENCODING 193
SWIDTH 480 0
DWIDTH 5 0
BBX 4 10 0 0
BITMAP
10
20
00
60
90
90
F0
90
90
90
ENDCHAR
STARTCHAR LATIN
ENCODING 194
SWIDTH 480 0
DWIDTH 5 0
BBX 4 10 0 0
BITMAP
60
90
00
60
90
90
F0
90
90
90
ENDCHAR
STARTCHAR LATIN
ENCODING 195
SWIDTH 480 0
DWIDTH 5 0
BBX 4 10 0 0
BITMAP
50
A0
00
60
90
90
F0
90
90
90
ENDCHAR
STARTCHAR LATIN
ENCODING 196
SWIDTH 480 0
DWIDTH 5 0
BBX 4 9 0 0
BITMAP
90
00
60
90
90
F0
90
90
90
ENDCHAR
STARTCHAR LATIN
ENCODING 197
SWIDTH 480 0
DWIDTH 5 0
BBX 4 10 0 0
BITMAP
60
60
00
60
90
90
F0
90
90
90
ENDCHAR
STARTCHAR LATIN
ENCODING 198
SWIDTH 576 0
DWIDTH 6 0
BBX 5 7 0 0
BITMAP
78
A0
A0
F0
A0
A0
B8
ENDCHAR
STARTCHAR LATIN
ENCODING 199
SWIDTH 480 0
DWIDTH 5 0
BBX 4 9 0 -2
BITMAP
60
90
80
80
80
90
60
20
40
ENDCHAR
STARTCHAR LATIN
ENCODING 200
SWIDTH 480 0
DWIDTH 5 0
BBX 4 10 0 0
BITMAP
80
40
00
F0
80
80
E0
80
80
F0
ENDCHAR
STARTCHAR LATIN
ENCODING 201
SWIDTH 480 0
DWIDTH 5 0
BBX 4 10 0 0
BITMAP
10
20
00
F0
80
80
E0
80
80
F0
ENDCHAR
STARTCHAR LATIN
ENCODING 202
SWIDTH 454 0
DWIDTH 5 0
BBX 4 10 0 0
BITMAP
60
90
00
F0
80
80
E0
80
80
F0
ENDCHAR
STARTCHAR LATIN
ENCODING 203
SWIDTH 480 0
DWIDTH 5 0
BBX 4 9 0 0
BITMAP
90
00
F0
80
80
E0
80
80
F0
ENDCHAR
STARTCHAR LATIN
ENCODING 204
SWIDTH 384 0
DWIDTH 4 0
BBX 3 10 0 0
BITMAP
80
40
00
E0
40
40
40
40
40
E0
ENDCHAR
STARTCHAR LATIN
ENCODING 205
SWIDTH 384 0
DWIDTH 4 0
BBX 3 10 0 0
BITMAP
20
40
00
E0
40
40
40
40
40
E0
ENDCHAR
STARTCHAR LATIN
ENCODING 206
SWIDTH 384 0
DWIDTH 4 0
BBX 3 10 0 0
BITMAP
40
A0
00
E0
40
40
40
40
40
E0
ENDCHAR
STARTCHAR LATIN
ENCODING 207
SWIDTH 384 0
DWIDTH 4 0
BBX 3 9 0 0
BITMAP
A0
00
E0
40
40
40
40
40
E0
ENDCHAR
STARTCHAR LATIN
ENCODING 208
SWIDTH 576 0
DWIDTH 6 0
BBX 5 7 0 0
BITMAP
60
50
48
E8
48
50
60
ENDCHAR
STARTCHAR LATIN
ENCODING 209
SWIDTH 480 0
DWIDTH 5 0
BBX 4 10 0 0
BITMAP
50
A0
00
90
D0
D0
B0
B0
90
90
ENDCHAR
STARTCHAR LATIN
ENCODING 210
SWIDTH 480 0
DWIDTH 5 0
BBX 4 10 0 0
BITMAP
80
40
00
60
90
90
90
90
90
60
ENDCHAR
STARTCHAR LATIN
ENCODING 211
SWIDTH 480 0
DWIDTH 5 0
BBX 4 10 0 0
BITMAP
10
20
00
60
90
90
90
90
90
60
ENDCHAR
STARTCHAR LATIN
ENCODING 212
SWIDTH 480 0
DWIDTH 5 0
BBX 4 10 0 0
BITMAP
60
90
00
60
90
90
90
90
90
60
ENDCHAR
STARTCHAR LATIN
ENCODING 213
SWIDTH 480 0
DWIDTH 5 0
BBX 4 10 0 0
BITMAP
50
A0
00
60
90
90
90
90
90
60
ENDCHAR
STARTCHAR LATIN
ENCODING 214
SWIDTH 480 0
DWIDTH 5 0
BBX 4 9 0 0
BITMAP
90
00
60
90
90
90
90
90
60
ENDCHAR
STARTCHAR MULTIPLICATION
ENCODING 215
SWIDTH 384 0
DWIDTH 4 0
BBX 3 3 0 2
BITMAP
A0
40
A0
ENDCHAR
STARTCHAR LATIN
ENCODING 216
SWIDTH 480 0
DWIDTH 5 0
BBX 4 8 0 -1
BITMAP
10
60
90
B0
D0
90
60
80
ENDCHAR
STARTCHAR LATIN
ENCODING 217
SWIDTH 480 0
DWIDTH 5 0
BBX 4 10 0 0
BITMAP
80
40
00
90
90
90
90
90
90
60
ENDCHAR
STARTCHAR LATIN
ENCODING 218
SWIDTH 480 0
DWIDTH 5 0
BBX 4 10 0 0
BITMAP
10
20
00
90
90
90
90
90
90
60
ENDCHAR
STARTCHAR LATIN
ENCODING 219
SWIDTH 480 0
DWIDTH 5 0
BBX 4 10 0 0
BITMAP
60
90
00
90
90
90
90
90
90
60
ENDCHAR
STARTCHAR LATIN
ENCODING 220
SWIDTH 480 0
DWIDTH 5 0
BBX 4 9 0 0
BITMAP
90
00
90
90
90
90
90
90
60
ENDCHAR
STARTCHAR LATIN
ENCODING 221
SWIDTH 545 0
DWIDTH 6 0
BBX 5 10 0 0
BITMAP
08
10
00
88
88
50
20
20
20
20
ENDCHAR
STARTCHAR LATIN
ENCODING 222
SWIDTH 480 0
DWIDTH 5 0
BBX 4 7 0 0
BITMAP
80
E0
90
90
90
E0
80
ENDCHAR
STARTCHAR LATIN
ENCODING 223
SWIDTH 480 0
DWIDTH 5 0
BBX 4 7 0 0
BITMAP
60
90
90
A0
90
90
A0
ENDCHAR
STARTCHAR LATIN
ENCODING 224
SWIDTH 480 0
DWIDTH 5 0
BBX 4 8 0 0
BITMAP
80
40
00
60
10
70
90
70
ENDCHAR
STARTCHAR LATIN
ENCODING 225
SWIDTH 480 0
DWIDTH 5 0
BBX 4 8 0 0
BITMAP
10
20
00
60
10
70
90
70
ENDCHAR
STARTCHAR LATIN
ENCODING 226
SWIDTH 480 0
DWIDTH 5 0
BBX 4 8 0 0
BITMAP
60
90
00
60
10
70
90
70
ENDCHAR
STARTCHAR LATIN
ENCODING 227
SWIDTH 480 0
DWIDTH 5 0
BBX 4 8 0 0
BITMAP
50
A0
00
60
10
70
90
70
ENDCHAR
STARTCHAR LATIN
ENCODING 228
SWIDTH 480 0
DWIDTH 5 0
BBX 4 7 0 0
BITMAP
90
00
60
10
70
90
70
ENDCHAR
STARTCHAR LATIN
ENCODING 229
SWIDTH 480 0
DWIDTH 5 0
BBX 4 9 0 0
BITMAP
60
90
60
00
60
10
70
90
70
ENDCHAR
STARTCHAR LATIN
ENCODING 230
SWIDTH 576 0
DWIDTH 6 0
BBX 5 5 0 0
BITMAP
D0
28
78
A0
D8
ENDCHAR
STARTCHAR LATIN
ENCODING 231
SWIDTH 480 0
DWIDTH 5 0
BBX 4 7 0 -2
BITMAP
60
90
80
90
60
20
40
ENDCHAR
STARTCHAR LATIN
ENCODING 232
SWIDTH 480 0
DWIDTH 5 0
BBX 4 8 0 0
BITMAP
80
40
00
60
90
F0
80
60
ENDCHAR
STARTCHAR LATIN
ENCODING 233
SWIDTH 480 0
DWIDTH 5 0
BBX 4 8 0 0
BITMAP
10
20
00
60
90
F0
80
60
ENDCHAR
STARTCHAR LATIN
ENCODING 234
SWIDTH 480 0
DWIDTH 5 0
BBX 4 8 0 0
BITMAP
60
90
00
60
90
F0
80
60
ENDCHAR
STARTCHAR LATIN
ENCODING 235
SWIDTH 480 0
DWIDTH 5 0
BBX 4 7 0 0
BITMAP
90
00
60
90
F0
80
60
ENDCHAR
STARTCHAR LATIN
ENCODING 236
SWIDTH 272 0
DWIDTH 3 0
BBX 3 8 0 0
BITMAP
80
40
00
C0
40
40
40
E0
ENDCHAR
STARTCHAR LATIN
ENCODING 237
SWIDTH 288 0
DWIDTH 3 0
BBX 3 8 0 0
BITMAP
20
40
00
C0
40
40
40
E0
ENDCHAR
STARTCHAR LATIN
ENCODING 238
SWIDTH 363 0
DWIDTH 4 0
BBX 3 8 0 0
BITMAP
40
A0
00
C0
40
40
40
E0
ENDCHAR
STARTCHAR LATIN
ENCODING 239
SWIDTH 363 0
DWIDTH 4 0
BBX 3 7 0 0
BITMAP
A0
00
C0
40
40
40
E0
ENDCHAR
STARTCHAR LATIN
ENCODING 240
SWIDTH 480 0
DWIDTH 5 0
BBX 4 8 0 0
BITMAP
A0
40
A0
60
90
90
90
60
ENDCHAR
STARTCHAR LATIN
ENCODING 241
SWIDTH 480 0
DWIDTH 5 0
BBX 4 8 0 0
BITMAP
50
A0
00
A0
D0
90
90
90
ENDCHAR
STARTCHAR LATIN
ENCODING 242
SWIDTH 480 0
DWIDTH 5 0
BBX 4 8 0 0
BITMAP
80
40
00
60
90
90
90
60
ENDCHAR
STARTCHAR LATIN
ENCODING 243
SWIDTH 480 0
DWIDTH 5 0
BBX 4 8 0 0
BITMAP
10
20
00
60
90
90
90
60
ENDCHAR
STARTCHAR LATIN
ENCODING 244
SWIDTH 480 0
DWIDTH 5 0
BBX 4 8 0 0
BITMAP
60
90
00
60
90
90
90
60
ENDCHAR
STARTCHAR LATIN
ENCODING 245
SWIDTH 480 0
DWIDTH 5 0
BBX 4 8 0 0
BITMAP
50
A0
00
60
90
90
90
60
ENDCHAR
STARTCHAR LATIN
ENCODING 246
SWIDTH 480 0
DWIDTH 5 0
BBX 4 7 0 0
BITMAP
90
00
60
90
90
90
60
ENDCHAR
STARTCHAR DIVISION
ENCODING 247
SWIDTH 576 0
DWIDTH 6 0
BBX 5 5 0 1
BITMAP
20
00
F8
00
20
ENDCHAR
STARTCHAR LATIN
ENCODING 248
SWIDTH 480 0
DWIDTH 5 0
BBX 4 7 0 -1
BITMAP
10
60
B0
F0
D0
60
80
ENDCHAR
STARTCHAR LATIN
ENCODING 249
SWIDTH 480 0
DWIDTH 5 0
BBX 4 8 0 0
BITMAP
80
40
00
90
90
90
B0
50
ENDCHAR
STARTCHAR LATIN
ENCODING 250
SWIDTH 480 0
DWIDTH 5 0
BBX 4 8 0 0
BITMAP
10
20
00
90
90
90
B0
50
ENDCHAR
STARTCHAR LATIN
ENCODING 251
SWIDTH 480 0
DWIDTH 5 0
BBX 4 8 0 0
BITMAP
60
90
00
90
90
90
B0
50
ENDCHAR
STARTCHAR LATIN
ENCODING 252
SWIDTH 480 0
DWIDTH 5 0
BBX 4 7 0 0
BITMAP
90
00
90
90
90
B0
50
ENDCHAR
STARTCHAR LATIN
ENCODING 253
SWIDTH 480 0
DWIDTH 5 0
BBX 4 10 0 -2
BITMAP
10
20
00
90
90
90
50
30
10
60
ENDCHAR
STARTCHAR LATIN
ENCODING 254
SWIDTH 480 0
DWIDTH 5 0
BBX 4 7 0 -1
BITMAP
80
A0
D0
90
D0
A0
80
ENDCHAR
STARTCHAR LATIN
ENCODING 255
SWIDTH 480 0
DWIDTH 5 0
BBX 4 9 0 -2
BITMAP
90
00
90
90
90
50
30
10
60
ENDCHAR
STARTCHAR Amacron
ENCODING 256
SWIDTH 454 0
DWIDTH 5 0
BBX 4 9 0 0
BITMAP
60
00
60
90
90
F0
90
90
90
ENDCHAR
STARTCHAR amacron
ENCODING 257
SWIDTH 454 0
DWIDTH 5 0
BBX 4 7 0 0
BITMAP
60
00
60
10
70
90
70
ENDCHAR
STARTCHAR Abreve
ENCODING 258
SWIDTH 454 0
DWIDTH 5 0
BBX 4 10 0 0
BITMAP
90
60
00
60
90
90
F0
90
90
90
ENDCHAR
STARTCHAR abreve
ENCODING 259
SWIDTH 1000 0
DWIDTH 5 0
BBX 4 8 0 0
BITMAP
90
60
00
60
10
70
90
70
ENDCHAR
STARTCHAR Aogonek
ENCODING 260
SWIDTH 1000 0
DWIDTH 5 0
BBX 4 9 0 -2
BITMAP
60
90
90
F0
90
90
90
20
30
ENDCHAR
STARTCHAR aogonek
ENCODING 261
SWIDTH 1000 0
DWIDTH 5 0
BBX 4 7 0 -2
BITMAP
60
10
70
90
70
20
30
ENDCHAR
STARTCHAR Cacute
ENCODING 262
SWIDTH 454 0
DWIDTH 5 0
BBX 4 10 0 0
BITMAP
10
20
00
60
90
80
80
80
90
60
ENDCHAR
STARTCHAR cacute
ENCODING 263
SWIDTH 1000 0
DWIDTH 5 0
BBX 4 8 0 0
BITMAP
10
20
00
60
90
80
90
60
ENDCHAR
STARTCHAR Dcaron
ENCODING 270
SWIDTH 454 0
DWIDTH 5 0
BBX 4 10 0 0
BITMAP
90
60
00
C0
A0
90
90
90
A0
C0
ENDCHAR
STARTCHAR dcaron
ENCODING 271
SWIDTH 636 0
DWIDTH 7 0
BBX 6 8 0 0
BITMAP
04
14
10
50
B0
90
90
70
ENDCHAR
STARTCHAR dcroat
ENCODING 273
SWIDTH 1000 0
DWIDTH 5 0
BBX 5 7 0 0
BITMAP
38
10
50
B0
90
90
70
ENDCHAR
STARTCHAR Emacron
ENCODING 274
SWIDTH 454 0
DWIDTH 5 0
BBX 4 9 0 0
BITMAP
60
00
F0
80
80
E0
80
80
F0
ENDCHAR
STARTCHAR emacron
ENCODING 275
SWIDTH 454 0
DWIDTH 5 0
BBX 4 7 0 0
BITMAP
60
00
60
90
F0
80
60
ENDCHAR
STARTCHAR Ebreve
ENCODING 276
SWIDTH 1000 0
DWIDTH 5 0
BBX 4 10 0 0
BITMAP
90
60
00
F0
80
80
E0
80
80
F0
ENDCHAR
STARTCHAR ebreve
ENCODING 277
SWIDTH 1000 0
DWIDTH 5 0
BBX 4 8 0 0
BITMAP
90
60
00
60
90
F0
80
60
ENDCHAR
STARTCHAR Edotaccent
ENCODING 278
SWIDTH 1000 0
DWIDTH 5 0
BBX 4 10 0 0
BITMAP
60
60
00
F0
80
80
E0
80
80
F0
ENDCHAR
STARTCHAR edotaccent
ENCODING 279
SWIDTH 1000 0
DWIDTH 5 0
BBX 4 8 0 0
BITMAP
60
60
00
60
90
F0
80
60
ENDCHAR
STARTCHAR Eogonek
ENCODING 280
SWIDTH 1000 0
DWIDTH 5 0
BBX 4 9 0 -2
BITMAP
F0
80
80
E0
80
80
F0
20
30
ENDCHAR
STARTCHAR eogonek
ENCODING 281
SWIDTH 454 0
DWIDTH 5 0
BBX 4 7 0 -2
BITMAP
60
90
F0
80
60
40
60
ENDCHAR
STARTCHAR Ecaron
ENCODING 282
SWIDTH 1000 0
DWIDTH 5 0
BBX 4 10 0 0
BITMAP
50
20
00
F0
80
80
E0
80
80
F0
ENDCHAR
STARTCHAR ecaron
ENCODING 283
SWIDTH 1000 0
DWIDTH 5 0
BBX 4 8 0 0
BITMAP
50
20
00
60
90
F0
80
60
ENDCHAR
STARTCHAR Gcircumflex
ENCODING 284
SWIDTH 1000 0
DWIDTH 5 0
BBX 4 10 0 0
BITMAP
60
90
00
60
90
80
B0
90
90
60
ENDCHAR
STARTCHAR gcircumflex
ENCODING 285
SWIDTH 454 0
DWIDTH 5 0
BBX 4 10 0 -2
BITMAP
60
90
00
50
B0
90
90
70
10
60
ENDCHAR
STARTCHAR uni0122
ENCODING 290
SWIDTH 1000 0
DWIDTH 5 0
BBX 4 9 0 -2
BITMAP
60
90
80
B0
90
90
60
20
40
ENDCHAR
STARTCHAR uni0123
ENCODING 291
SWIDTH 1000 0
DWIDTH 5 0
BBX 4 10 0 -2
BITMAP
40
60
00
50
B0
90
90
70
10
60
ENDCHAR
STARTCHAR Hcircumflex
ENCODING 292
SWIDTH 454 0
DWIDTH 5 0
BBX 4 10 0 0
BITMAP
60
90
00
90
90
90
F0
90
90
90
ENDCHAR
STARTCHAR hcircumflex
ENCODING 293
SWIDTH 454 0
DWIDTH 5 0
BBX 4 10 0 0
BITMAP
60
90
00
80
80
A0
D0
90
90
90
ENDCHAR
STARTCHAR Hbar
ENCODING 294
SWIDTH 636 0
DWIDTH 7 0
BBX 6 7 0 0
BITMAP
48
FC
48
78
48
48
48
ENDCHAR
STARTCHAR hbar
ENCODING 295
SWIDTH 545 0
DWIDTH 6 0
BBX 5 7 0 0
BITMAP
60
C0
50
68
48
48
48
ENDCHAR
STARTCHAR Itilde
ENCODING 296
SWIDTH 363 0
DWIDTH 4 0
BBX 4 10 -1 0
BITMAP
50
A0
00
70
20
20
20
20
20
70
ENDCHAR
STARTCHAR itilde
ENCODING 297
SWIDTH 363 0
DWIDTH 4 0
BBX 4 8 -1 0
BITMAP
50
A0
00
60
20
20
20
70
ENDCHAR
STARTCHAR imacron
ENCODING 299
SWIDTH 363 0
DWIDTH 4 0
BBX 3 7 0 0
BITMAP
E0
00
C0
40
40
40
E0
ENDCHAR
STARTCHAR ibreve
ENCODING 301
SWIDTH 363 0
DWIDTH 4 0
BBX 3 8 0 0
BITMAP
A0
40
00
C0
40
40
40
E0
ENDCHAR
STARTCHAR Iogonek
ENCODING 302
SWIDTH 1000 0
DWIDTH 4 0
BBX 3 9 0 -2
BITMAP
E0
40
40
40
40
40
E0
40
20
ENDCHAR
STARTCHAR iogonek
ENCODING 303
SWIDTH 363 0
DWIDTH 4 0
BBX 3 9 0 -2
BITMAP
40
00
C0
40
40
40
E0
40
20
ENDCHAR
STARTCHAR IJ
ENCODING 306
SWIDTH 545 0
DWIDTH 6 0
BBX 5 7 0 0
BITMAP
98
88
88
88
88
A8
90
ENDCHAR
STARTCHAR ij
ENCODING 307
SWIDTH 363 0
DWIDTH 4 0
BBX 3 9 0 -2
BITMAP
A0
00
A0
A0
A0
A0
A0
20
40
ENDCHAR
STARTCHAR Jcircumflex
ENCODING 308
SWIDTH 454 0
DWIDTH 5 0
BBX 4 10 0 0
BITMAP
20
50
00
30
10
10
10
10
90
60
ENDCHAR
STARTCHAR jcircumflex
ENCODING 309
SWIDTH 363 0
DWIDTH 4 0
BBX 3 10 0 -2
BITMAP
40
A0
00
60
20
20
20
20
A0
40
ENDCHAR
STARTCHAR uni0136
ENCODING 310
SWIDTH 454 0
DWIDTH 5 0
BBX 4 9 0 -2
BITMAP
90
90
A0
C0
A0
90
90
20
40
ENDCHAR
STARTCHAR uni0137
ENCODING 311
SWIDTH 454 0
DWIDTH 5 0
BBX 4 9 0 -2
BITMAP
80
80
90
A0
C0
A0
90
20
40
ENDCHAR
STARTCHAR kgreenlandic
ENCODING 312
SWIDTH 454 0
DWIDTH 5 0
BBX 4 5 0 0
BITMAP
90
A0
C0
A0
90
ENDCHAR
STARTCHAR Lacute
ENCODING 313
SWIDTH 454 0
DWIDTH 5 0
BBX 4 10 0 0
BITMAP
20
40
00
80
80
80
80
80
80
F0
ENDCHAR
STARTCHAR lacute
ENCODING 314
SWIDTH 1000 0
DWIDTH 4 0
BBX 4 10 0 0
BITMAP
10
20
00
C0
40
40
40
40
40
60
ENDCHAR
STARTCHAR uni013B
ENCODING 315
SWIDTH 1000 0
DWIDTH 5 0
BBX 4 9 0 -2
BITMAP
80
80
80
80
80
80
F0
20
40
ENDCHAR
STARTCHAR uni013C
ENCODING 316
SWIDTH 1000 0
DWIDTH 4 0
BBX 3 9 0 -2
BITMAP
C0
40
40
40
40
40
60
20
40
ENDCHAR
STARTCHAR lcaron
ENCODING 318
SWIDTH 454 0
DWIDTH 5 0
BBX 4 8 0 0
BITMAP
10
D0
40
40
40
40
40
60
ENDCHAR
STARTCHAR Ldot
ENCODING 319
SWIDTH 454 0
DWIDTH 5 0
BBX 4 7 0 0
BITMAP
80
80
80
A0
80
80
F0
ENDCHAR
STARTCHAR ldot
ENCODING 320
SWIDTH 454 0
DWIDTH 5 0
BBX 4 7 0 0
BITMAP
C0
40
40
50
40
40
60
ENDCHAR
STARTCHAR Lslash
ENCODING 321
SWIDTH 545 0
DWIDTH 6 0
BBX 5 7 0 0
BITMAP
40
40
40
E0
40
40
78
ENDCHAR
STARTCHAR lslash
ENCODING 322
SWIDTH 363 0
DWIDTH 4 0
BBX 3 7 0 0
BITMAP
C0
40
40
E0
40
40
60
ENDCHAR
STARTCHAR uni0145
ENCODING 325
SWIDTH 1000 0
DWIDTH 5 0
BBX 4 9 0 -2
BITMAP
90
D0
D0
B0
B0
90
90
20
40
ENDCHAR
STARTCHAR uni0146
ENCODING 326
SWIDTH 1000 0
DWIDTH 5 0
BBX 4 7 0 -2
BITMAP
A0
D0
90
90
90
20
40
ENDCHAR
STARTCHAR Ncaron
ENCODING 327
SWIDTH 1000 0
DWIDTH 5 0
BBX 4 10 0 0
BITMAP
50
20
00
90
D0
D0
B0
B0
90
90
ENDCHAR
STARTCHAR ncaron
ENCODING 328
SWIDTH 1000 0
DWIDTH 5 0
BBX 4 8 0 0
BITMAP
50
20
00
A0
D0
90
90
90
ENDCHAR
STARTCHAR napostrophe
ENCODING 329
SWIDTH 545 0
DWIDTH 6 0
BBX 5 9 0 0
BITMAP
80
80
80
00
50
68
48
48
48
ENDCHAR
STARTCHAR Eng
ENCODING 330
SWIDTH 1000 0
DWIDTH 5 0
BBX 4 9 0 -2
BITMAP
A0
D0
90
90
90
90
90
10
20
ENDCHAR
STARTCHAR eng
ENCODING 331
SWIDTH 454 0
DWIDTH 5 0
BBX 4 7 0 -2
BITMAP
A0
D0
90
90
90
10
20
ENDCHAR
STARTCHAR Omacron
ENCODING 332
SWIDTH 454 0
DWIDTH 5 0
BBX 4 9 0 0
BITMAP
60
00
60
90
90
90
90
90
60
ENDCHAR
STARTCHAR omacron
ENCODING 333
SWIDTH 454 0
DWIDTH 5 0
BBX 4 7 0 0
BITMAP
60
00
60
90
90
90
60
ENDCHAR
STARTCHAR Obreve
ENCODING 334
SWIDTH 454 0
DWIDTH 5 0
BBX 4 10 0 0
BITMAP
90
60
00
60
90
90
90
90
90
60
ENDCHAR
STARTCHAR obreve
ENCODING 335
SWIDTH 454 0
DWIDTH 5 0
BBX 4 8 0 0
BITMAP
90
60
00
60
90
90
90
60
ENDCHAR
STARTCHAR Ohungarumlaut
ENCODING 336
SWIDTH 545 0
DWIDTH 6 0
BBX 5 10 0 0
BITMAP
48
90
00
60
90
90
90
90
90
60
ENDCHAR
STARTCHAR ohungarumlaut
ENCODING 337
SWIDTH 545 0
DWIDTH 6 0
BBX 5 8 0 0
BITMAP
48
90
00
60
90
90
90
60
ENDCHAR
STARTCHAR OE
ENCODING 338
SWIDTH 1000 0
DWIDTH 6 0
BBX 5 7 0 0
BITMAP
58
A0
A0
B0
A0
A0
58
ENDCHAR
STARTCHAR oe
ENCODING 339
SWIDTH 545 0
DWIDTH 6 0
BBX 5 5 0 0
BITMAP
50
A8
B8
A0
58
ENDCHAR
STARTCHAR Racute
ENCODING 340
SWIDTH 454 0
DWIDTH 5 0
BBX 4 10 0 0
BITMAP
10
20
00
E0
90
90
E0
A0
90
90
ENDCHAR
STARTCHAR racute
ENCODING 341
SWIDTH 454 0
DWIDTH 5 0
BBX 4 8 0 0
BITMAP
10
20
00
B0
C0
80
80
80
ENDCHAR
STARTCHAR uni0156
ENCODING 342
SWIDTH 454 0
DWIDTH 5 0
BBX 4 9 0 -2
BITMAP
E0
90
90
E0
A0
90
90
20
60
ENDCHAR
STARTCHAR uni0157
ENCODING 343
SWIDTH 454 0
DWIDTH 5 0
BBX 4 7 0 -2
BITMAP
B0
C0
80
80
80
40
C0
ENDCHAR
STARTCHAR Rcaron
ENCODING 344
SWIDTH 1000 0
DWIDTH 5 0
BBX 4 10 0 0
BITMAP
50
20
00
E0
90
90
E0
A0
90
90
ENDCHAR
STARTCHAR rcaron
ENCODING 345
SWIDTH 1000 0
DWIDTH 5 0
BBX 4 8 0 0
BITMAP
50
20
00
B0
C0
80
80
80
ENDCHAR
STARTCHAR Sacute
ENCODING 346
SWIDTH 454 0
DWIDTH 5 0
BBX 4 10 0 0
BITMAP
10
20
00
60
90
80
60
10
90
60
ENDCHAR
STARTCHAR sacute
ENCODING 347
SWIDTH 1000 0
DWIDTH 5 0
BBX 4 8 0 0
BITMAP
10
20
00
70
80
60
10
E0
ENDCHAR
STARTCHAR Scedilla
ENCODING 350
SWIDTH 1000 0
DWIDTH 5 0
BBX 4 9 0 -2
BITMAP
60
90
80
60
10
90
60
20
40
ENDCHAR
STARTCHAR scedilla
ENCODING 351
SWIDTH 1000 0
DWIDTH 5 0
BBX 4 7 0 -2
BITMAP
70
80
60
10
E0
20
40
ENDCHAR
STARTCHAR Scaron
ENCODING 352
SWIDTH 1000 0
DWIDTH 5 0
BBX 4 10 0 0
BITMAP
50
20
00
60
90
80
60
10
90
60
ENDCHAR
STARTCHAR uni0162
ENCODING 354
SWIDTH 545 0
DWIDTH 6 0
BBX 5 9 0 -2
BITMAP
F8
20
20
20
20
20
20
10
20
ENDCHAR
STARTCHAR uni0163
ENCODING 355
SWIDTH 454 0
DWIDTH 5 0
BBX 4 9 0 -2
BITMAP
40
40
E0
40
40
50
20
10
20
ENDCHAR
STARTCHAR Tcaron
ENCODING 356
SWIDTH 1000 0
DWIDTH 6 0
BBX 5 10 0 0
BITMAP
50
20
00
F8
20
20
20
20
20
20
ENDCHAR
STARTCHAR tcaron
ENCODING 357
SWIDTH 1000 0
DWIDTH 5 0
BBX 4 8 0 0
BITMAP
10
50
40
E0
40
40
50
20
ENDCHAR
STARTCHAR Utilde
ENCODING 360
SWIDTH 1000 0
DWIDTH 5 0
BBX 4 10 0 0
BITMAP
50
A0
00
90
90
90
90
90
90
60
ENDCHAR
STARTCHAR utilde
ENCODING 361
SWIDTH 1000 0
DWIDTH 5 0
BBX 4 8 0 0
BITMAP
50
A0
00
90
90
90
90
60
ENDCHAR
STARTCHAR Umacron
ENCODING 362
SWIDTH 454 0
DWIDTH 5 0
BBX 4 9 0 0
BITMAP
60
00
90
90
90
90
90
90
60
ENDCHAR
STARTCHAR Ubreve
ENCODING 364
SWIDTH 1000 0
DWIDTH 5 0
BBX 4 10 0 0
BITMAP
90
60
00
90
90
90
90
90
90
60
ENDCHAR
STARTCHAR ubreve
ENCODING 365
SWIDTH 1000 0
DWIDTH 5 0
BBX 4 8 0 0
BITMAP
90
60
00
90
90
90
90
60
ENDCHAR
STARTCHAR Uring
ENCODING 366
SWIDTH 1000 0
DWIDTH 5 0
BBX 4 11 0 0
BITMAP
60
90
60
00
90
90
90
90
90
90
60
ENDCHAR
STARTCHAR uring
ENCODING 367
SWIDTH 1000 0
DWIDTH 5 0
BBX 4 9 0 0
BITMAP
60
90
60
00
90
90
90
90
60
ENDCHAR
STARTCHAR Uhungarumlaut
ENCODING 368
SWIDTH 545 0
DWIDTH 6 0
BBX 5 10 0 0
BITMAP
48
90
00
90
90
90
90
90
90
60
ENDCHAR
ENDFONT
